<svg xmlns="http://www.w3.org/2000/svg" width="36" height="36" fill="none" viewBox="0 0 36 36">
    <path fill="#5C5F62" d="M19.414 18l6.293-6.293c.187-.188.293-.442.293-.707 0-.265-.106-.52-.293-.707-.188-.188-.442-.293-.707-.293-.265 0-.52.105-.707.293L18 16.586l-6.293-6.293c-.093-.093-.203-.167-.325-.217-.12-.05-.25-.076-.382-.076s-.261.026-.383.076c-.121.05-.231.124-.324.217-.188.187-.293.442-.293.707 0 .265.105.52.293.707L16.586 18l-6.293 6.293c-.188.187-.293.442-.293.707 0 .265.105.52.293.707.187.187.442.293.707.293.265 0 .52-.106.707-.293L18 19.414l6.293 6.293c.093.093.203.167.324.217.121.05.251.077.383.077.131 0 .261-.026.383-.077.121-.05.231-.124.324-.217s.166-.203.217-.325c.05-.12.076-.25.076-.382 0-.131-.026-.262-.076-.383s-.124-.231-.217-.324L19.414 18z"/>
</svg>
