<svg width="24" height="24" viewBox="0 0 24 24" fill="none" xmlns="http://www.w3.org/2000/svg">
    <path fill-rule="evenodd" clip-rule="evenodd" d="M11.75 3c2.473 0 4.652 1.661 5.438 4.045 2.338.331 4.145 2.427 4.145 4.955a5.123 5.123 0 0 1-1.198 3.309.934.934 0 0 1-1.353.088 1.033 1.033 0 0 1-.083-1.413A3.07 3.07 0 0 0 19.416 12c0-1.654-1.29-3-2.875-3h-.095a.97.97 0 0 1-.94-.803C15.149 6.345 13.57 5 11.75 5 9.932 5 8.352 6.345 7.994 8.197a.97.97 0 0 1-.94.803h-.096c-1.585 0-2.875 1.346-2.875 3 0 .732.255 1.438.719 1.984.35.415.312 1.046-.084 1.413a.93.93 0 0 1-1.353-.088A5.118 5.118 0 0 1 2.166 12c0-2.528 1.808-4.624 4.145-4.955C7.098 4.661 9.277 3 11.75 3zm.959 14.644 1.25-1.26a.931.931 0 0 1 1.355.025 1.03 1.03 0 0 1-.023 1.414l-2.875 2.897a.932.932 0 0 1-1.344-.013l-2.874-3a1.03 1.03 0 0 1 0-1.414.931.931 0 0 1 1.355 0l1.239 1.293V12c0-.553.43-1 .958-1 .53 0 .959.447.959 1v5.644z" fill="#353E54"/>
    <mask id="j3gao6assa" style="mask-type:alpha" maskUnits="userSpaceOnUse" x="2" y="3" width="20" height="18">
        <path fill-rule="evenodd" clip-rule="evenodd" d="M11.75 3c2.473 0 4.652 1.661 5.438 4.045 2.338.331 4.145 2.427 4.145 4.955a5.123 5.123 0 0 1-1.198 3.309.934.934 0 0 1-1.353.088 1.033 1.033 0 0 1-.083-1.413A3.07 3.07 0 0 0 19.416 12c0-1.654-1.29-3-2.875-3h-.095a.97.97 0 0 1-.94-.803C15.149 6.345 13.57 5 11.75 5 9.932 5 8.352 6.345 7.994 8.197a.97.97 0 0 1-.94.803h-.096c-1.585 0-2.875 1.346-2.875 3 0 .732.255 1.438.719 1.984.35.415.312 1.046-.084 1.413a.93.93 0 0 1-1.353-.088A5.118 5.118 0 0 1 2.166 12c0-2.528 1.808-4.624 4.145-4.955C7.098 4.661 9.277 3 11.75 3zm.959 14.644 1.25-1.26a.931.931 0 0 1 1.355.025 1.03 1.03 0 0 1-.023 1.414l-2.875 2.897a.932.932 0 0 1-1.344-.013l-2.874-3a1.03 1.03 0 0 1 0-1.414.931.931 0 0 1 1.355 0l1.239 1.293V12c0-.553.43-1 .958-1 .53 0 .959.447.959 1v5.644z" fill="#fff"/>
    </mask>
</svg>
