<svg width="173" height="120" fill="none" xmlns="http://www.w3.org/2000/svg">
    <path fill-rule="evenodd" clip-rule="evenodd" d="M37.84 59.818H17.125a2.601 2.601 0 0 0-2.605 2.605v7.363a2.601 2.601 0 0 0 2.605 2.605H37.84a2.601 2.601 0 0 0 2.605-2.605v-7.363a2.601 2.601 0 0 0-2.605-2.605zm-20.715.756H37.84c1.025 0 1.85.825 1.85 1.85v7.362c0 1.025-.825 1.85-1.85 1.85H17.125a1.846 1.846 0 0 1-1.85-1.85v-7.363c0-1.024.825-1.85 1.85-1.85z" fill="#2E186A"/>
    <path fill-rule="evenodd" clip-rule="evenodd" d="M36.38 62.701a.378.378 0 0 1 .022.755H19.264a.378.378 0 0 1-.022-.754H36.38zM32.693 64.613a.378.378 0 0 1 .022.755H19.264a.378.378 0 0 1-.022-.754h13.451zM36.38 66.715a.378.378 0 0 1 .022.754H19.264a.378.378 0 0 1-.022-.753l.022-.001H36.38zM32.693 68.629a.378.378 0 0 1 .022.754l-.023.001H19.265a.378.378 0 0 1-.022-.755h13.451z" fill="#2E186A"/>
    <circle cx="15.653" cy="61.719" r="2.706" fill="#FE7624"/>
    <path fill-rule="evenodd" clip-rule="evenodd" d="M75.205 78.356h-2.706v-2.252h2.706c.428 0 .767.34.767.767v.718c0 .427-.34.767-.767.767zM109.612 78.356h-6.393a.763.763 0 0 1-.768-.767v-.718c0-.428.34-.767.768-.767h6.393c.428 0 .768.34.768.767v.718a.78.78 0 0 1-.768.767zM99.595 78.356H78.628a.763.763 0 0 1-.768-.767v-.718c0-.428.34-.767.768-.767h20.967c.428 0 .767.34.767.767v.718a.762.762 0 0 1-.767.767z" fill="#FE7624"/>
    <path fill-rule="evenodd" clip-rule="evenodd" d="M110.292 73.713H72.625a.378.378 0 0 0-.378.361l-.014.356a39.145 39.145 0 0 0-.026 2.86l.007.215c.02.491.102 1.303.287 2.97a.378.378 0 0 0 .375.336h37.416a2.263 2.263 0 0 0 2.265-2.265v-2.58a2.26 2.26 0 0 0-2.265-2.253zm-37.305.755h37.305c.834 0 1.51.673 1.51 1.498v2.618a1.508 1.508 0 0 1-1.51 1.472H73.215l-.07-.642c-.121-1.124-.172-1.703-.18-2.06a36.418 36.418 0 0 1 .014-2.663l.008-.223zM31.673 71.686c.201 0 .365.157.377.355v12.003a.377.377 0 0 1-.754.022V72.064c0-.21.168-.378.377-.378zM31.673 96.088c.201 0 .365.157.377.355v1.532c0 1.193 1.034 2.169 2.335 2.19h19.01a.378.378 0 0 1 .022.755l-.022.001H34.429c-1.71 0-3.105-1.284-3.133-2.896v-1.56c0-.208.168-.377.377-.377zM90.999 100.166a.378.378 0 0 1 .022.754l-.022.001H75.695a.377.377 0 0 1-.022-.754l.022-.001H91zM142.396 80.295c.201 0 .366.157.377.355l.001.022v17.305c0 1.62-1.379 2.919-3.082 2.944l-.052.001h-14.007a.378.378 0 0 1-.022-.755h14.029c1.307 0 2.355-.962 2.378-2.15l.001-.04V80.672c0-.208.169-.377.377-.377zM142.397 45.145c.201 0 .365.157.377.355v8.026a.377.377 0 0 1-.754.022l-.001-.022V45.9H32.051v14.184a.378.378 0 0 1-.355.377h-.023a.378.378 0 0 1-.376-.355l-.001-.022v-14.56c0-.202.157-.366.355-.378h110.746zM88.507 33.113h-7.626c.264.202.503.453.717.73 0 .013.013.013.013.025l3.373 5.337h4.58a.351.351 0 0 1-.113-.277v-4.946c0-.479-.428-.869-.944-.869zm-1.56 3.31h-.554v.554a.387.387 0 0 1-.378.377.379.379 0 0 1-.377-.377v-.541h-.541a.37.37 0 0 1-.378-.378.37.37 0 0 1 .378-.377h.553v-.554c0-.202.177-.378.378-.378.214 0 .378.176.378.378v.541h.54a.37.37 0 0 1 .378.377.387.387 0 0 1-.377.378z" fill="#2E186A"/>
    <path fill-rule="evenodd" clip-rule="evenodd" d="m140.055 30.357-106.054.139c-1.535 0-2.769 1.321-2.769 2.932l.063 5.865 18.651-.088 3.373-5.336c0-.013.013-.013.013-.026.692-.918 1.736-1.472 2.806-1.472h22.54c.038-.013.063-.013.1-.013h9.742c.944 0 1.699.73 1.699 1.624v4.946c0 .113-.05.201-.114.277h52.732v.755H84.782a.359.359 0 0 1-.315-.176l-3.473-5.5c-.541-.717-1.36-1.158-2.19-1.158H56.126c-.83 0-1.649.428-2.19 1.158l-3.474 5.5a.359.359 0 0 1-.314.176l-18.853.088.063 6.393h111.479V33.29c-.013-1.624-1.259-2.933-2.782-2.933zM35.839 36.738a1.686 1.686 0 1 1 0-3.373 1.686 1.686 0 0 1 0 3.373zm5.55 0a1.686 1.686 0 1 1 0-3.373 1.686 1.686 0 0 1 0 3.373zm5.562 0a1.686 1.686 0 1 1 0-3.373 1.686 1.686 0 0 1 0 3.373zm89.983-1.12-.717.529h.05a.398.398 0 0 1 .34.415.391.391 0 0 1-.377.34h-.038l-.944-.101h-.05a.373.373 0 0 1-.302-.151c-.063-.088-.088-.189-.063-.302l.188-.994a.383.383 0 0 1 .441-.302c.201.037.34.239.302.44l-.013.063.756-.554a.371.371 0 0 1 .528.088c.126.177.076.403-.101.529zm2.656-1.95-.189.93a.375.375 0 0 1-.365.303c-.025 0-.05 0-.075-.013a.366.366 0 0 1-.29-.44l.013-.05-.717.528a.377.377 0 0 1-.529-.076.372.372 0 0 1 .088-.528l.755-.554-.063-.013a.379.379 0 0 1-.327-.415.378.378 0 0 1 .415-.327l1.007.113a.383.383 0 0 1 .265.151c.062.126.075.277.012.39zm-62.85 2.491c-.15-.138-.176-.377-.037-.528.138-.151.377-.177.528-.038l.529.453.528-.453a.366.366 0 0 1 .529.05.366.366 0 0 1-.05.529l-.44.365.44.377c.15.139.176.378.037.529a.365.365 0 0 1-.29.126.385.385 0 0 1-.25-.088l-.53-.453-.528.453a.353.353 0 0 1-.24.088.376.376 0 0 1-.288-.139.366.366 0 0 1 .05-.528l.44-.365-.428-.378zm-36.912 7.413h-2.152l.541.49a.376.376 0 0 1 .026.53.357.357 0 0 1-.277.125.4.4 0 0 1-.252-.1l-1.196-1.096a.379.379 0 0 1-.214-.34v-.025c0-.1.038-.2.126-.276l1.246-1.158a.365.365 0 0 1 .529.025.376.376 0 0 1-.025.529l-.567.515h2.215a.37.37 0 0 1 .378.378c0 .214-.176.403-.378.403zm5.94-.378a.379.379 0 0 1-.213.34l-1.196 1.095a.4.4 0 0 1-.252.1.357.357 0 0 1-.276-.125.376.376 0 0 1 .025-.529l.54-.49h-2.151a.37.37 0 0 1-.378-.378.37.37 0 0 1 .378-.378h2.215l-.567-.516a.376.376 0 0 1-.025-.528.376.376 0 0 1 .529-.025l1.246 1.157a.404.404 0 0 1 .126.277c0-.012 0-.025 0 0 0-.012 0-.012 0 0zm80.016.73c0 .353-.277.63-.629.63H50.702a.623.623 0 0 1-.63-.63v-1.183c0-.352.277-.63.63-.63h74.453c.352 0 .629.278.629.63v1.183zm6.532-1.107-.655.377.252.793a.376.376 0 0 1-.126.415.381.381 0 0 1-.428.038l-.704-.403-.718.529a.38.38 0 0 1-.453 0 .377.377 0 0 1-.138-.428l.264-.818-.705-.503c-.138-.101-.188-.265-.138-.428a.393.393 0 0 1 .365-.265H130l.265-.818a.393.393 0 0 1 .365-.264c.163 0 .314.1.364.264l.265.819h.868c.176 0 .315.113.365.276a.35.35 0 0 1-.176.416zm6.016 1.812h-2.115a.37.37 0 0 1-.377-.378.37.37 0 0 1 .377-.377h2.115a.37.37 0 0 1 .377.377.37.37 0 0 1-.377.378zm0-1.17h-2.115a.37.37 0 0 1-.377-.378.37.37 0 0 1 .377-.378h2.115a.37.37 0 0 1 .377.378.37.37 0 0 1-.377.377zm0-1.184h-2.115a.37.37 0 0 1-.377-.377.37.37 0 0 1 .377-.378h2.115a.37.37 0 0 1 .377.378.37.37 0 0 1-.377.377zM110.028 60.385H73.657c-.05.54-.088 1.095-.126 1.623-.201 3.41-.49 6.368-.692 9.011h37.201c1.208 0 2.19-.982 2.19-2.19v-6.267a2.199 2.199 0 0 0-2.202-2.177zM123.154 90.64H93.529a2.902 2.902 0 0 0-2.895 2.895v12.862a2.902 2.902 0 0 0 2.895 2.895h29.625a2.903 2.903 0 0 0 2.895-2.895V93.535a2.902 2.902 0 0 0-2.895-2.894zm-29.625.756h29.625c1.176 0 2.139.963 2.139 2.14v12.861c0 1.176-.963 2.14-2.139 2.14H93.529a2.147 2.147 0 0 1-2.14-2.14V93.535c0-1.176.964-2.14 2.14-2.14z" fill="#2E186A"/>
    <path fill-rule="evenodd" clip-rule="evenodd" d="M99.481 94.555a3.964 3.964 0 1 0 0 7.928 3.964 3.964 0 0 0 0-7.928zm0 .755a3.21 3.21 0 1 1 0 6.418 3.21 3.21 0 0 1 0-6.418zM119.567 101.791h-4.48c-.662 0-1.196.534-1.196 1.196v.453c0 .661.534 1.195 1.196 1.195h4.48a1.21 1.21 0 0 0 1.195-1.185l.001-.463c0-.662-.534-1.196-1.196-1.196zm-4.48.755h4.48c.245 0 .44.196.44.441v.453a.452.452 0 0 1-.44.44h-4.48a.439.439 0 0 1-.441-.44v-.453a.44.44 0 0 1 .441-.441z" fill="#2E186A"/>
    <circle cx="91.779" cy="91.899" r="2.706" fill="#FE7624"/>
    <path fill-rule="evenodd" clip-rule="evenodd" d="m105.41 97.588 14.611.038a.378.378 0 0 1 .02.754h-.022l-14.611-.037a.378.378 0 0 1-.02-.755h.022zM105.573 99.426l14.599.037a.378.378 0 0 1 .02.755l-.022.001-14.599-.038a.377.377 0 0 1-.02-.755h.022zM153.195 53.226l-26.074-.075a3.098 3.098 0 0 0-3.124 3.095l-.063 21.608a3.098 3.098 0 0 0 3.096 3.122l26.075.076a3.124 3.124 0 0 0 3.123-3.093l.063-21.61a3.098 3.098 0 0 0-3.096-3.123zm-26.122.68 26.12.075a2.343 2.343 0 0 1 2.342 2.32l-.063 21.654a2.366 2.366 0 0 1-2.366 2.342l-26.075-.076a2.343 2.343 0 0 1-2.342-2.32l.063-21.653a2.344 2.344 0 0 1 2.321-2.342z" fill="#2E186A"/>
    <path fill-rule="evenodd" clip-rule="evenodd" d="m150.388 66.514-5.601-.012c-.598 0-1.082.484-1.082 1.082l-.013 5.688c0 .6.484 1.083 1.083 1.083l5.599.013c.595.019 1.083-.47 1.083-1.083l.013-5.687c0-.6-.484-1.084-1.082-1.084zm-5.601.743 5.6.013c.182 0 .328.145.328.327l-.013 5.687c0 .186-.13.323-.295.329l-5.631-.013a.326.326 0 0 1-.328-.327l.012-5.688c0-.182.146-.328.327-.328zM149.331 59.078l-18.21-.05c-.802 0-1.448.635-1.448 1.434l-.013 2.868c0 .802.636 1.449 1.435 1.449l18.209.05a1.46 1.46 0 0 0 1.449-1.426l.012-2.876c0-.803-.635-1.45-1.434-1.45zm-18.239.705h.028l18.21.05c.38 0 .68.305.68.692l-.012 2.868a.704.704 0 0 1-.692.68l-18.21-.05a.681.681 0 0 1-.681-.692l.013-2.867a.68.68 0 0 1 .664-.681zM130.29 72.984l11.516.026a.378.378 0 0 1 .02.754h-.022l-11.515-.024a.378.378 0 0 1-.021-.755h.022zM130.291 69.977l11.528.037a.377.377 0 0 1 .02.755h-.023l-11.528-.037a.377.377 0 0 1-.019-.755h.022zM130.305 66.969l11.515.038a.377.377 0 0 1 .02.754h-.023l-11.515-.037a.377.377 0 0 1-.02-.755h.023z" fill="#2E186A"/>
    <circle cx="125.621" cy="54.333" r="2.706" fill="#FE7624"/>
    <path fill-rule="evenodd" clip-rule="evenodd" d="M35.94 83.63H4.25a2.263 2.263 0 0 0-2.265 2.266v8.596a2.263 2.263 0 0 0 2.265 2.265h31.69a2.263 2.263 0 0 0 2.265-2.265v-8.596a2.263 2.263 0 0 0-2.266-2.265zm-31.69.756h31.69c.836 0 1.51.674 1.51 1.51v8.596c0 .836-.674 1.51-1.51 1.51H4.25c-.836 0-1.51-.674-1.51-1.51v-8.596c0-.836.674-1.51 1.51-1.51z" fill="#2E186A"/>
    <path fill-rule="evenodd" clip-rule="evenodd" d="M32.516 88.4a.377.377 0 0 1 .023.755H7.12a.378.378 0 0 1-.022-.754h25.418zM29.546 91.13a.378.378 0 0 1 .023.755l-.023.001H7.12a.378.378 0 0 1-.022-.754l.022-.001h22.426z" fill="#2E186A"/>
    <circle cx="3.206" cy="84.473" r="2.706" fill="#FE7624"/>
    <path fill-rule="evenodd" clip-rule="evenodd" d="M104.075 23.209C102.904 9.265 90.646-1.081 76.702.09 62.758 1.26 52.413 13.518 53.584 27.463c.704 8.381 5.411 15.454 12.081 19.52L63.25 50.92c1.913 1.523 3.498 3.323 4.367 4.392l.73.718c0-1.183.201-6.77 3.637-7.224 1.158-.151 1.787.403 2.102 1.422 2.215.416 4.505.554 6.858.352 13.957-1.17 24.302-13.428 23.132-27.372zM80.478 44.906c-10.798.906-20.3-7.11-21.218-17.909-.907-10.798 7.11-20.3 17.908-21.218 10.798-.919 20.3 7.11 21.219 17.908.906 10.81-7.111 20.3-17.909 21.219z" fill="#FE7624"/>
    <path fill-rule="evenodd" clip-rule="evenodd" d="M55.732 48.014c-3.263.82-6.283 2.407-8.612 4.708-2.758 2.725-4.446 6.333-4.811 10.805l-.001.018c-.177 5.265 1.906 10.182 5.477 14.61a33.337 33.337 0 0 0 3.758 3.943c.45.4.866.75 1.241 1.046l.05.038.222.173.048.036-.275 35.525a.379.379 0 0 0 .379.381l24.98-.089a.377.377 0 0 0 .376-.41l-.014-.098-.782-5.386-.41-2.845c-.519-3.608-1.033-7.219-1.521-10.69l-.267-1.906c-1.588-11.363-2.554-18.84-2.605-20.509-.04-1.277-.001-2.682.111-4.438l.035-.513c.04-.592.09-1.227.152-1.995l.281-3.348c.149-1.799.258-3.258.347-4.739l.017-.287c.03-.517.072-1.06.125-1.65l.036-.389c.055-.581.118-1.18.215-2.06l.11-1.013c.343-3.2.407-4.347.275-5.653-.206-2.026-1.064-3.052-2.735-2.833-1.82.232-2.945 1.715-3.53 3.985a14.203 14.203 0 0 0-.388 2.422l-.006.082-.011.158-.006.096-.02-.025a32.565 32.565 0 0 0-2.963-3.197c-2.323-2.181-4.634-3.636-6.828-4.019-.85-.148-1.669-.131-2.45.066zm2.32.678c2.018.352 4.216 1.736 6.44 3.826a31.806 31.806 0 0 1 2.569 2.728l.134.16c.175.212.337.413.484.6l.107.138c.063.081.119.154.167.219l.087.117a.378.378 0 0 0 .684-.212l-.002-.066c-.005-.325.006-.77.047-1.29.061-.789.18-1.568.366-2.292.516-2.005 1.454-3.241 2.896-3.425 1.154-.151 1.707.492 1.88 2.106l.015.136c.12 1.258.039 2.456-.33 5.857l-.152 1.393a99.549 99.549 0 0 0-.15 1.49l-.026.298c-.044.492-.079.952-.106 1.393l-.034.56c-.078 1.284-.172 2.56-.294 4.069l-.288 3.425c-.084 1.01-.145 1.794-.194 2.52l-.03.437c-.113 1.778-.153 3.204-.112 4.508.05 1.61.903 8.293 2.332 18.577l.422 3.03.203 1.439c.464 3.303.952 6.724 1.443 10.143l.87 6.015.271 1.864-24.164.085.274-35.334a.378.378 0 0 0-.158-.31l-.114-.085-.116-.087a17.469 17.469 0 0 1-.173-.135l-.047-.037c-.364-.288-.77-.628-1.208-1.018a32.587 32.587 0 0 1-3.672-3.854l-.104-.129c-3.37-4.221-5.335-8.877-5.211-13.83l.004-.142v.01c.35-4.292 1.959-7.731 4.589-10.33 2.227-2.2 5.127-3.723 8.265-4.513.675-.17 1.387-.185 2.136-.054z" fill="#2E186A"/>
    <path fill-rule="evenodd" clip-rule="evenodd" d="M41.427 82.9c-.529.857.239 2.291 1.724 3.21l.767.478c1.486.919 3.109.97 3.638.114l6.418-10.584-5.701-4.317-6.846 11.1z" fill="#FE7624"/>
    <path fill-rule="evenodd" clip-rule="evenodd" d="M50.98 65.304a.378.378 0 0 1 .492-.21c6.029 2.411 13.075 8.483 12.588 10.859-.46 2.238-2.808 3.076-6.088 2.382-1.094-.236-2.78-1.137-4.934-2.553l-.087-.057c-.433-.286-.88-.59-1.337-.908a96.354 96.354 0 0 1-3.051-2.218l-.273-.207c-.253-.192-.492-.376-.715-.548l-.367-.286-.34-.269a.378.378 0 0 1 .451-.604l.035.026.32.252.363.284a103.228 103.228 0 0 0 4.008 2.95c.396.276.784.54 1.16.79l.162.108c2.116 1.397 3.78 2.29 4.763 2.502 2.922.618 4.835-.065 5.19-1.796.16-.783-1.253-2.667-3.611-4.699-2.528-2.178-5.684-4.174-8.518-5.307a.378.378 0 0 1-.21-.491z" fill="#2E186A"/>
    <path fill-rule="evenodd" clip-rule="evenodd" d="M52.725 58.728a.378.378 0 0 1 .48-.192l.027.012.162.076.216.106.247.123.202.102c.444.225.93.481 1.447.766a48.798 48.798 0 0 1 5.001 3.143c1.888 1.362 3.491 2.768 4.721 4.202l.08.092.052.059c1.844 2.065 2.567 4.504 2.07 6.375l-.015.057c-.538 1.92-2.244 2.652-4.106 1.56a.378.378 0 1 1 .383-.652c1.427.838 2.59.339 2.996-1.111.452-1.614-.19-3.82-1.889-5.723l-.064-.072c-1.196-1.415-2.785-2.815-4.67-4.175a48.033 48.033 0 0 0-4.924-3.094l-.232-.127c-.461-.25-.894-.477-1.292-.678l-.223-.111a34.75 34.75 0 0 0-.226-.112l-.26-.124a.378.378 0 0 1-.183-.502z" fill="#2E186A"/>
    <path fill-rule="evenodd" clip-rule="evenodd" d="M53.665 53.173c.061-.191.26-.3.453-.251l.035.01.137.046.141.049c.116.04.244.087.384.139l.216.08c.473.18.99.392 1.542.634 1.818.8 3.635 1.775 5.334 2.933 2.663 1.816 4.782 3.913 6.15 6.305 1.214 2.122 1.728 3.856 1.643 5.245-.07 1.136-.534 1.986-1.26 2.573a3.533 3.533 0 0 1-.867.515c-.181.076-.326.12-.417.14a.378.378 0 0 1-.183-.733l.05-.013a2.383 2.383 0 0 0 .26-.09c.233-.097.466-.231.683-.406.565-.458.924-1.115.98-2.032.075-1.225-.397-2.82-1.544-4.824-1.305-2.281-3.344-4.3-5.92-6.056a32.533 32.533 0 0 0-5.213-2.866 31.78 31.78 0 0 0-1.612-.658l-.104-.04c-.158-.058-.3-.109-.426-.152l-.132-.045-.085-.029a.378.378 0 0 1-.245-.474z" fill="#2E186A"/>
    <path fill-rule="evenodd" clip-rule="evenodd" d="M68.125 55.688a.378.378 0 0 1 .513.147c1.425 2.566 2.112 4.667 2.179 6.357.053 1.346-.29 2.366-.9 3.09-.203.24-.422.43-.643.576-.137.09-.25.147-.324.177a.378.378 0 0 1-.297-.694l.037-.016c.034-.016.093-.047.17-.098a2.25 2.25 0 0 0 .48-.432c.487-.578.768-1.413.722-2.574-.06-1.558-.712-3.55-2.084-6.02a.377.377 0 0 1 .147-.513zM172.122 118.617a.378.378 0 0 1 .023.755H1.104a.377.377 0 0 1-.022-.754l.022-.001h171.018z" fill="#2E186A"/>
</svg>
