<svg xmlns="http://www.w3.org/2000/svg" width="17" height="18" fill="none" viewBox="0 0 17 18">
    <mask id="7v8jq4ux6a" width="13" height="14" x="4" y="0" maskUnits="userSpaceOnUse">
        <path fill="#fff" fill-rule="evenodd" d="M4 .5h13v13H4V.5z" clip-rule="evenodd"/>
    </mask>
    <g mask="url(#7v8jq4ux6a)">
        <path fill="#87859A" fill-rule="evenodd" d="M17 11.315c-.018.07-.038.14-.053.21-.231 1.08-1.116 1.874-2.218 1.96-.415.031-.834.004-1.265.004v-1.355c.133 0 .271.002.41 0 .264-.007.532.009.793-.03.564-.082.952-.55.952-1.126.002-2.644.003-5.288.001-7.932 0-.643-.504-1.148-1.157-1.15-1.998-.004-3.997-.002-5.996-.002-.62 0-1.242.01-1.863-.003-.634-.012-1.282.486-1.233 1.241.018.271.003.545.003.83H4.032c-.004-.004-.017-.013-.017-.021-.006-.528-.058-1.058.076-1.577C4.367 1.297 5.34.51 6.434.507c2.71-.01 5.42-.01 8.13 0 1.193.004 2.218.918 2.4 2.1.006.037.024.073.036.11v8.598z" clip-rule="evenodd"/>
    </g>
    <mask id="np3f2mytlb" width="13" height="14" x="0" y="4" maskUnits="userSpaceOnUse">
        <path fill="#fff" fill-rule="evenodd" d="M0 4.5h13v13H0v-13z" clip-rule="evenodd"/>
    </mask>
    <g mask="url(#np3f2mytlb)">
        <path fill="#87859A" fill-rule="evenodd" d="M1.446 11.035v4.037c0 .659.477 1.14 1.136 1.14h7.946c.62-.001 1.116-.489 1.117-1.112.004-2.702.003-5.405.002-8.108 0-.231-.062-.447-.194-.641-.256-.373-.621-.494-1.057-.493-2.581.005-5.162.001-7.743.003-.761 0-1.207.453-1.207 1.222v3.952zM6.494 17.5H2.59C1.097 17.496 0 16.39 0 14.89V7.107c0-1.493 1.104-2.603 2.596-2.604 2.61-.003 5.219-.003 7.828 0 1.456.001 2.572 1.12 2.574 2.577.002 2.623.003 5.246 0 7.87 0 1.422-1.126 2.546-2.547 2.55-.662.002-1.325 0-1.987 0h-1.97z" clip-rule="evenodd"/>
    </g>
</svg>
