<svg width="54" height="59" viewBox="0 0 54 59" fill="none" xmlns="http://www.w3.org/2000/svg">
    <path fill-rule="evenodd" clip-rule="evenodd" d="M12.25 2a4 4 0 0 0-4 4v49a4 4 0 0 0 4 4h35a4 4 0 0 0 4-4V16l-15-14h-24z" fill="#E9EAEE"/>
    <g filter="url(#px1d1qomia)">
        <path d="m36.25 2 15 14h-15V2z" fill="#A7ADBB"/>
    </g>
    <rect x=".25" y="28" width="45" height="23" rx="4" fill="#F15642"/>
    <path d="M10.369 45V34.818h3.629c.792 0 1.448.144 1.969.433.52.288.91.683 1.168 1.183.258.497.388 1.057.388 1.68 0 .627-.131 1.19-.393 1.69-.259.498-.65.892-1.173 1.184-.52.288-1.175.432-1.964.432h-2.496v-1.302h2.357c.5 0 .906-.086 1.218-.259.311-.175.54-.414.686-.715.146-.302.219-.645.219-1.03 0-.384-.073-.725-.22-1.024a1.569 1.569 0 0 0-.69-.7c-.312-.17-.723-.254-1.233-.254h-1.93V45H10.37zm13.23 0h-3.295V34.818h3.4c.998 0 1.855.204 2.57.612a4.03 4.03 0 0 1 1.646 1.745c.385.755.577 1.662.577 2.72 0 1.06-.194 1.971-.582 2.734a4.082 4.082 0 0 1-1.67 1.76c-.73.407-1.611.611-2.645.611zm-1.76-1.342h1.676c.776 0 1.42-.146 1.934-.438.514-.295.898-.72 1.154-1.277.255-.56.382-1.243.382-2.049 0-.799-.127-1.476-.382-2.033a2.705 2.705 0 0 0-1.129-1.268c-.5-.288-1.122-.433-1.864-.433h-1.77v7.498zM31.388 45V34.818h6.314v1.323h-4.778v3.102h4.326v1.317h-4.326V45h-1.536z" fill="#fff"/>
    <defs>
        <filter id="px1d1qomia" x="32.25" y="0" width="21" height="20" filterUnits="userSpaceOnUse" color-interpolation-filters="sRGB">
            <feFlood flood-opacity="0" result="BackgroundImageFix"/>
            <feColorMatrix in="SourceAlpha" values="0 0 0 0 0 0 0 0 0 0 0 0 0 0 0 0 0 0 127 0" result="hardAlpha"/>
            <feOffset dx="-1" dy="1"/>
            <feGaussianBlur stdDeviation="1.5"/>
            <feComposite in2="hardAlpha" operator="out"/>
            <feColorMatrix values="0 0 0 0 0 0 0 0 0 0 0 0 0 0 0 0 0 0 0.25 0"/>
            <feBlend in2="BackgroundImageFix" result="effect1_dropShadow_1608_60490"/>
            <feBlend in="SourceGraphic" in2="effect1_dropShadow_1608_60490" result="shape"/>
        </filter>
    </defs>
</svg>
