<svg width="17" height="16" viewBox="0 0 17 16" fill="none" xmlns="http://www.w3.org/2000/svg">
    <path fill-rule="evenodd" clip-rule="evenodd" d="M10.917 7.334h-2v-2a.666.666 0 1 0-1.333 0v2.667c0 .368.298.666.666.666h2.667a.666.666 0 1 0 0-1.333zm-2.667 6a5.34 5.34 0 0 1-5.333-5.333A5.34 5.34 0 0 1 8.25 2.667a5.34 5.34 0 0 1 5.334 5.334 5.34 5.34 0 0 1-5.334 5.333zm0-12a6.674 6.674 0 0 0-6.667 6.667 6.674 6.674 0 0 0 6.667 6.666 6.674 6.674 0 0 0 6.667-6.666A6.674 6.674 0 0 0 8.25 1.334z" fill="#FFAB00"/>
    <mask id="z4camb44pa" style="mask-type:alpha" maskUnits="userSpaceOnUse" x="1" y="1" width="14" height="14">
        <path fill-rule="evenodd" clip-rule="evenodd" d="M10.917 7.334h-2v-2a.666.666 0 1 0-1.333 0v2.667c0 .368.298.666.666.666h2.667a.666.666 0 1 0 0-1.333zm-2.667 6a5.34 5.34 0 0 1-5.333-5.333A5.34 5.34 0 0 1 8.25 2.667a5.34 5.34 0 0 1 5.334 5.334 5.34 5.34 0 0 1-5.334 5.333zm0-12a6.674 6.674 0 0 0-6.667 6.667 6.674 6.674 0 0 0 6.667 6.666 6.674 6.674 0 0 0 6.667-6.666A6.674 6.674 0 0 0 8.25 1.334z" fill="#fff"/>
    </mask>
</svg>
