<svg width="65" height="20" viewBox="0 0 65 20" fill="none" xmlns="http://www.w3.org/2000/svg">
    <path d="M27.896 20h-5.135L25.973.91h5.136L27.896 20zM46.877.824C45.84.433 44.196 0 42.162 0c-5.19 0-8.846 2.636-8.868 6.405-.044 2.78 2.617 4.325 4.606 5.253 2.034.947 2.725 1.565 2.725 2.41-.02 1.297-1.643 1.895-3.156 1.895-2.099 0-3.224-.308-4.932-1.03l-.692-.31-.736 4.347c1.233.535 3.504 1.01 5.862 1.03 5.516 0 9.107-2.595 9.15-6.612.02-2.204-1.385-3.893-4.413-5.272-1.839-.886-2.965-1.484-2.965-2.39.022-.824.953-1.668 3.028-1.668 1.709-.041 2.965.35 3.916.741l.475.206.715-4.18z" fill="#00579F"/>
    <path fill-rule="evenodd" clip-rule="evenodd" d="M56.33.91h4L64.5 20h-4.787s-.468-2.194-.617-2.864H52.46L51.374 20h-5.425l7.68-17.507C54.16 1.254 55.096.91 56.33.91zm-.318 6.985s-1.639 4.245-2.064 5.342h4.297c-.213-.955-1.192-5.524-1.192-5.524l-.361-1.645c-.152.423-.372 1.006-.52 1.398-.101.267-.169.446-.16.43z" fill="#00579F"/>
    <path d="M19.98.91 14.83 13.94l-.563-2.643c-.953-3.05-3.94-6.363-7.273-8.01L11.712 20h5.563L25.543.91h-5.562z" fill="#00579F"/>
    <path d="M9.194 0H.588L.5.405c6.713 1.666 11.159 5.68 12.986 10.504l-1.871-9.222C11.307.405 10.36.042 9.194 0z" fill="#FAA61A"/>
</svg>
